<svg xmlns="http://www.w3.org/2000/svg" viewBox="0 0 1998.07 463.87">
  <defs>
    <style>
      .cls-1 {
        fill: #29abe2;
      }

      .cls-2 {
        fill: #000025;
      }

      .cls-3 {
        fill: #fbb03b;
      }

      .cls-4, .cls-5 {
        fill: #296da9;
      }

      .cls-5 {
        opacity: 0.6;
      }
    </style>
  </defs>
  <title>Fichier 6</title>
  <g id="Calque_2" data-name="Calque 2">
    <g id="Calque_1-2" data-name="Calque 1">
      <path class="cls-1" d="M435.17,143.14q8.77,10.26,8.78,26.1,0,26.53-16.69,44.71-16,17.33-42.37,22.68l-6-30.38q14.78-3,21.19-8.35A34.24,34.24,0,0,1,383,185.71a33.45,33.45,0,0,1-6.42-19.9,33.6,33.6,0,0,1,33.59-33.59Q426,132.22,435.17,143.14Z"/>
      <path class="cls-2" d="M212.14,99.4c83.25,1.32,120.06,55.65,120.06,109.1,0,66.6-59.16,104.28-116.55,109.1-25.85,1.75-50.83,1.75-71.86,2.19V460H70.18V99.84Zm1.32,152.91c26.72-3.5,42.94-18.4,42.94-42.5,0-25.85-10.52-38.55-41.19-42.5-21.91-3.07-46-3.94-71.42-3.94v92.45C167,255.82,191.55,254.94,213.46,252.31Z"/>
      <path class="cls-2" d="M505.69,136.64h71v77.55h48.63v60H576.68v69.67c0,5.69,0,10.51.43,15.33.88,19.72,6.14,30.24,16.22,33.3,10.07,3.94,21,.88,27.6.88l11,62.22c-8.76-.44-30.67,6.57-55.2,4.38-53.9-6.14-68.36-46-70.11-87.63-.44-8.77-.44-18-.44-27.17l-.44-71H470.64v-60h35.05Z"/>
      <path class="cls-2" d="M697.61,206.75H769V460H697.61Z"/>
      <path class="cls-2" d="M851.84,136.64h71v77.55h48.64v60H922.82v69.67c0,5.69,0,10.51.44,15.33.88,19.72,6.14,30.24,16.21,33.3,10.08,3.94,21,.88,27.61.88L978,455.62c-8.76-.44-30.67,6.57-55.21,4.38-53.89-6.14-68.35-46-70.1-87.63-.44-8.77-.44-18-.44-27.17l-.44-71H816.79v-60h35.05Z"/>
      <path class="cls-2" d="M1401.29,357c0,56.52-46,96-103,102.09-7.89.44-16.21.88-24.54.88H1136.65V100.72l139.33-.45c63.53,0,115.67,42.07,115.67,104.72,0,28.48-12.27,53-31.54,71C1385.52,294.82,1401.73,323.3,1401.29,357ZM1230,251.87c14.46,0,28.48-.43,41.63-1.31,25-2.19,43.38-15.33,43.38-42.5,0-27.61-18.41-41.18-43.38-43.82-13.15-.87-27.17-1.31-41.63-1.31h-17.52v88.94Zm-17.52,146.35h18.4c18.4,0,38.12-.44,56.08-2.63,23.23-3.07,38.12-16.21,37.69-41.63,0-22.78-13.59-35.92-35.06-39.43-22.34-4.82-46.88-4.82-64.84-4.82h-12.27Z"/>
      <path class="cls-1" d="M1715.46,460h-70.54V435.46c-19.72,18.84-45.57,30.67-81.06,28-64-5.26-111.29-62.66-111.29-129.25s47.76-124,111.29-129.26c4.82-.44,10.08-.87,16.21-.87,25.85-.44,63.53,3.5,90.26,14.45,7.45-1.31,13.15-2.19,16.65-1.74a244.68,244.68,0,0,1,28.48,6.57ZM1586.2,400.41c35.06,0,59.16-25.85,59.59-64.85v-1.31c0-39.88-25.41-65.73-59.59-66.16-34.61,0-60,26.28-60,66.16S1550.28,400.41,1586.2,400.41Z"/>
      <path class="cls-2" d="M1985.81,291.31l-55.21-6.13-3.51-6.58a46.14,46.14,0,0,0-4.38-5.25c-9.2-4.38-19.72-5.7-32-4.38-28.47,4.81-48.19,29.79-48.63,65.28,0,35.49,20.16,60,48.63,64.85a56.94,56.94,0,0,0,28.49-2.64c14.46-3.06,26.72-11.38,33.29-20.15L1998.07,407c-3.94,6.57-11,15.33-20.15,24.54-11.83,11.39-34.18,23.22-61.78,28a109.73,109.73,0,0,1-39.44,2.19c-58.71-8.32-107.78-64-107.78-127.07S1818,215.07,1876.7,206.75l6.58-1.32c8.32-.88,17.52-.44,26.29.44,42.06,3.51,70.1,24.1,76.24,35C1990.19,255.82,1989.31,282.11,1985.81,291.31Z"/>
      <path class="cls-3" d="M734.41,112.07a62.05,62.05,0,0,1,27.17,6.58,66.14,66.14,0,0,1,6.14,28.47A69.65,69.65,0,0,1,761.58,176a74,74,0,0,1-29.79,6.13A60.53,60.53,0,0,1,704.62,176,159.86,159.86,0,0,1,698.49,134C703.31,122.15,718.2,112.07,734.41,112.07Z"/>
      <polygon class="cls-4" points="114.21 0 251.52 18.34 135.41 89.8 0 77.72 114.21 0"/>
      <path class="cls-1" d="M136.5,93.53c23.43-12.1,45.46-30.17,68.89-42.27l11.16,47.28c-2,4.69-54.48,39-67.58,42.46-9.67,1.94-76.11-2.72-83.3-8.1L54.79,86.81"/>
      <path class="cls-3" d="M43.42,70.62,31.83,80.56A136.81,136.81,0,0,0,30,145.11a21.59,21.59,0,0,0,24.64-5.82,138.78,138.78,0,0,1-6.73-56.94L60.93,71.94Z"/>
      <path class="cls-5" d="M134.74,93.24,55.23,86.71,66.11,132.8c6.51,4.87,61.55,9.15,79.11,8.48C141.12,125.4,137.52,109.41,134.74,93.24Z"/>
    </g>
  </g>
</svg>
